<?xml version="1.0" encoding="UTF-8" standalone="no"?>
<svg
   width="2072.5017"
   height="565.00043"
   viewBox="0 0 2072.5017 565.00042"
   version="1.1"
   xml:space="preserve"
   style="clip-rule:evenodd;fill-rule:evenodd;stroke-linejoin:round;stroke-miterlimit:2"
   id="svg339"
   sodipodi:docname="edc_white.svg"
   inkscape:version="1.2.1 (9c6d41e410, 2022-07-14)"
   xmlns:inkscape="http://www.inkscape.org/namespaces/inkscape"
   xmlns:sodipodi="http://sodipodi.sourceforge.net/DTD/sodipodi-0.dtd"
   xmlns="http://www.w3.org/2000/svg"
   xmlns:svg="http://www.w3.org/2000/svg"
   xmlns:serif="http://www.serif.com/"><defs
   id="defs343" /><sodipodi:namedview
   id="namedview341"
   pagecolor="#ffffff"
   bordercolor="#666666"
   borderopacity="1.0"
   inkscape:showpageshadow="2"
   inkscape:pageopacity="0.0"
   inkscape:pagecheckerboard="0"
   inkscape:deskcolor="#d1d1d1"
   showgrid="false"
   inkscape:zoom="0.33413946"
   inkscape:cx="1035.4958"
   inkscape:cy="377.08806"
   inkscape:window-width="1920"
   inkscape:window-height="1009"
   inkscape:window-x="-8"
   inkscape:window-y="-8"
   inkscape:window-maximized="1"
   inkscape:current-layer="svg339" />
    <g
   transform="translate(1035.1694,370.41264)"
   id="g337">
        <g
   id="EDC_cary.pdf"
   transform="translate(-1754.17,-1239.58)">
            <g
   id="_0"
   serif:id="0"
   transform="scale(4.16667)">
                
                <g
   transform="matrix(0.12,0,0,0.12,0,-155.24)"
   id="g316">
                    <path
   d="M 2568,3032 H 1438 v 188 h 1130 v -188"
   style="fill:#ffffff;fill-rule:nonzero"
   id="path314" />
                </g>
                <g
   transform="matrix(-0.12,0,0,0.12,480.72,-42.2)"
   id="g320">
                    <path
   d="m 1626,2561 h 754 v 188 h -754 v -188"
   style="fill:#ffffff;fill-rule:nonzero"
   id="path318" />
                </g>
                <g
   transform="matrix(0.12,0,0,0.12,0,70.84)"
   id="g324">
                    <path
   d="M 2568,2090 H 1438 v 188 h 1130 v -188"
   style="fill:#ffffff;fill-rule:nonzero"
   id="path322" />
                </g>
                <g
   transform="matrix(0.12,0,0,0.12,0,-155.24)"
   id="g328">
                    <path
   d="m 4641,4162 h 942 v -188 h -942 v -754 h 942 v -188 h -942 c -104.1,0 -189,83.89 -189,188 v 754 c 0,104.11 84.9,188 189,188"
   style="fill:#ffffff;fill-rule:nonzero"
   id="path326" />
                </g>
                <g
   transform="matrix(-0.12,0,0,0.12,1023.1,-155.24)"
   id="g332">
                    <path
   d="m 4641,4162 h 942 v -188 h -942 v -754 h 942 v -188 h -942 c -104.1,0 -189,83.89 -189,188 v 754 c 0,104.11 84.9,188 189,188"
   style="fill:#ffffff;fill-rule:nonzero"
   id="path330" />
                </g>
            </g>
        </g>
        <g
   id="EDC_cary.pdf1"
   serif:id="EDC_cary.pdf">
        </g>
    </g>
</svg>
